<svg xmlns="http://www.w3.org/2000/svg" width="16.85" height="14" viewBox="0 0 16.85 14">
  <path id="Path_26" data-name="Path 26" d="M108.871,131.868h8.42l-1.906-1.906a.93.93,0,0,1,1.316-1.316l3.494,3.494a.937.937,0,0,1,.118.144l.011.016,0,.006a.936.936,0,0,1,.071.139l.007.017,0,.007a.921.921,0,0,1,.043.148l0,.02v.008a.926.926,0,0,1,.013.145v.018a.934.934,0,0,1-.013.144v.008l0,.017a.93.93,0,0,1-.043.149l0,.01-.006.015a.927.927,0,0,1-.071.138l-.005.009-.01.014a.937.937,0,0,1-.117.143L116.7,136.95a.93.93,0,0,1-1.316-1.315l1.906-1.906h-8.42a3.393,3.393,0,0,0,0,6.785h7.255a.93.93,0,1,1,0,1.86h-7.255a5.253,5.253,0,0,1,0-10.506Z" transform="translate(-103.618 -128.374)" fill="#fbfbfb"/>
</svg>
