<svg xmlns="http://www.w3.org/2000/svg" width="24" height="22.362" viewBox="0 0 24 22.362">
  <g id="Calender_Icon" data-name="Calender Icon" transform="translate(-103.751 -399.04)">
    <path id="Path_15" data-name="Path 15" d="M106.378,421.354h18.746a.541.541,0,0,1,.54.54V432.31a.541.541,0,0,1-.54.54H106.378a.541.541,0,0,1-.54-.54V421.894a.541.541,0,0,1,.54-.54m-1.312-5.846h2.494v1.281a2.15,2.15,0,1,0,4.3,0v-1.281h7.781v1.281a2.15,2.15,0,1,0,4.3,0v-1.281h2.494a1.319,1.319,0,0,1,1.315,1.315v16.79a1.319,1.319,0,0,1-1.315,1.315H105.066a1.319,1.319,0,0,1-1.315-1.315v-16.79A1.319,1.319,0,0,1,105.066,415.508Z" transform="translate(0 -13.527)" fill="#c64839" fill-rule="evenodd"/>
    <path id="Path_16" data-name="Path 16" d="M128.926,458.319H131.9a.137.137,0,0,1,.137.137v2.978a.137.137,0,0,1-.137.137h-2.978a.137.137,0,0,1-.137-.137v-2.978a.137.137,0,0,1,.137-.137" transform="translate(-20.566 -48.692)" fill="#c64839" fill-rule="evenodd"/>
    <path id="Path_17" data-name="Path 17" d="M161.747,458.319h2.978a.137.137,0,0,1,.137.137v2.978a.137.137,0,0,1-.137.137h-2.978a.137.137,0,0,1-.137-.137v-2.978a.137.137,0,0,1,.137-.137" transform="translate(-47.525 -48.692)" fill="#c64839" fill-rule="evenodd"/>
    <path id="Path_18" data-name="Path 18" d="M195.023,458.319H198a.137.137,0,0,1,.137.137v2.978a.137.137,0,0,1-.137.137h-2.978a.137.137,0,0,1-.137-.137v-2.978a.137.137,0,0,1,.137-.137" transform="translate(-74.858 -48.692)" fill="#c64839" fill-rule="evenodd"/>
    <path id="Path_19" data-name="Path 19" d="M128.926,484.14H131.9a.137.137,0,0,1,.137.137v2.978a.137.137,0,0,1-.137.137h-2.978a.137.137,0,0,1-.137-.137v-2.978a.137.137,0,0,1,.137-.137" transform="translate(-20.566 -69.901)" fill="#c64839" fill-rule="evenodd"/>
    <path id="Path_20" data-name="Path 20" d="M161.747,484.14h2.978a.137.137,0,0,1,.137.137v2.978a.137.137,0,0,1-.137.137h-2.978a.137.137,0,0,1-.137-.137v-2.978a.137.137,0,0,1,.137-.137" transform="translate(-47.525 -69.901)" fill="#c64839" fill-rule="evenodd"/>
    <path id="Path_21" data-name="Path 21" d="M195.023,484.14H198a.137.137,0,0,1,.137.137v2.978a.137.137,0,0,1-.137.137h-2.978a.137.137,0,0,1-.137-.137v-2.978a.137.137,0,0,1,.137-.137" transform="translate(-74.858 -69.901)" fill="#c64839" fill-rule="evenodd"/>
    <path id="Path_22" data-name="Path 22" d="M130.1,399.04h0a1.531,1.531,0,0,1,1.526,1.526v2.7a1.531,1.531,0,0,1-1.526,1.526h0a1.531,1.531,0,0,1-1.526-1.526v-2.7a1.531,1.531,0,0,1,1.526-1.526" transform="translate(-20.389)" fill="#c64839" fill-rule="evenodd"/>
    <path id="Path_23" data-name="Path 23" d="M197.742,399.04h0a1.531,1.531,0,0,1,1.526,1.526v2.7a1.531,1.531,0,0,1-1.526,1.526h0a1.531,1.531,0,0,1-1.526-1.526v-2.7a1.531,1.531,0,0,1,1.526-1.526" transform="translate(-75.951)" fill="#c64839" fill-rule="evenodd"/>
  </g>
</svg>
