<svg xmlns="http://www.w3.org/2000/svg" width="18.118" height="22" viewBox="0 0 18.118 22">
  <g id="Polygon" transform="translate(18.118) rotate(90)" fill="none" stroke-linecap="round" stroke-linejoin="round">
    <path d="M9.29,2.816a2,2,0,0,1,3.419,0L20.156,15.08a2,2,0,0,1-1.71,3.038H3.554a2,2,0,0,1-1.71-3.038Z" stroke="none"/>
    <path d="M 10.99999713897705 7.707444190979004 L 7.108088493347168 14.11764621734619 L 14.89190292358398 14.11764621734619 L 10.99999713897705 7.707444190979004 M 11 1.853725433349609 C 11.66008853912354 1.853725433349609 12.32017612457275 2.174406051635742 12.70957088470459 2.815765380859375 L 20.15552139282227 15.07968616485596 C 20.96475028991699 16.41253662109375 20.00522041320801 18.11764526367188 18.44595146179199 18.11764526367188 L 3.554050445556641 18.11764526367188 C 1.994781494140625 18.11764526367188 1.035251617431641 16.41253662109375 1.844470977783203 15.07968616485596 L 9.290420532226562 2.815765380859375 C 9.679821014404297 2.174406051635742 10.33991050720215 1.853725433349609 11 1.853725433349609 Z" stroke="none" fill="#c64839"/>
  </g>
</svg>
