<svg xmlns="http://www.w3.org/2000/svg" width="19.971" height="20" viewBox="0 0 19.971 20">
  <g id="Group_86" data-name="Group 86" transform="translate(-266.211 -265.872)">
    <path id="Path_27" data-name="Path 27" d="M671.251,660.006h0l0,0Z" transform="translate(-387.737 -377.3)" fill="#fff"/>
    <path id="Path_28" data-name="Path 28" d="M282,304.191a2.413,2.413,0,0,0-.322-.282,2.055,2.055,0,0,0-.349-.2,1.844,1.844,0,0,0-.37-.125,1.793,1.793,0,0,0-.771,0,1.887,1.887,0,0,0-.372.123,2.138,2.138,0,0,0-.355.2,2.544,2.544,0,0,0-.332.281l-.333.332-.333.332-.333.332-.333.332-.082-.044-.082-.042-.081-.042-.08-.041-.112-.056-.108-.056-.1-.056-.1-.056q-.469-.3-.917-.641t-.88-.737q-.432-.394-.85-.84t-.827-.948c-.132-.167-.253-.327-.364-.482s-.213-.306-.307-.453-.178-.292-.256-.435-.148-.285-.212-.427q.13-.119.255-.239t.247-.242l.241-.242.236-.239.089-.089.089-.09.089-.09.089-.089a2.394,2.394,0,0,0,.5-.706,1.8,1.8,0,0,0,0-1.51,2.4,2.4,0,0,0-.5-.706l-.288-.288-.288-.288-.288-.288-.288-.288-.1-.1-.1-.1-.1-.1-.1-.1-.192-.2-.2-.2q-.1-.1-.2-.2t-.2-.193a2.4,2.4,0,0,0-.321-.268,2.08,2.08,0,0,0-.346-.194A1.881,1.881,0,0,0,270.4,293a1.824,1.824,0,0,0-.381-.04,1.847,1.847,0,0,0-.382.04,1.938,1.938,0,0,0-.37.118,2.166,2.166,0,0,0-.353.194,2.5,2.5,0,0,0-.33.268l0,0,0,0,0,0,0,0-.359.362-.359.362-.359.362-.359.362a3.306,3.306,0,0,0-.362.427,3.022,3.022,0,0,0-.459.983,3.313,3.313,0,0,0-.1.553,5.51,5.51,0,0,0,0,.9,6.792,6.792,0,0,0,.125.843c.056.268.125.52.2.753s.147.445.216.633c.171.461.363.914.579,1.362s.455.892.721,1.336.558.887.878,1.333.67.9,1.051,1.355a20.718,20.718,0,0,0,1.456,1.568,19.962,19.962,0,0,0,1.591,1.389,19.631,19.631,0,0,0,3.567,2.222c.243.115.506.235.786.353s.579.231.892.334a9.245,9.245,0,0,0,.981.265,7.474,7.474,0,0,0,1.055.146l.067,0,.067,0,.067,0h.065a3.66,3.66,0,0,0,.7-.066,3.15,3.15,0,0,0,.641-.2,3.058,3.058,0,0,0,.579-.327,3.374,3.374,0,0,0,.514-.457l0-.006,0,0,0,0,0-.006c.055-.067.112-.131.171-.2s.119-.127.181-.19.125-.125.19-.188l.2-.191.137-.131.138-.135.138-.138.137-.141a2.591,2.591,0,0,0,.276-.339,2.211,2.211,0,0,0,.2-.36,1.964,1.964,0,0,0,.121-.376,1.849,1.849,0,0,0,.041-.386,1.825,1.825,0,0,0-.042-.388,1.9,1.9,0,0,0-.124-.374,2.12,2.12,0,0,0-.2-.355,2.476,2.476,0,0,0-.281-.331l-.579-.581-.579-.581-.579-.581Zm1.511,4.445c-.041.044-.083.088-.124.13l-.127.127-.13.127-.134.13-.206.2q-.1.1-.206.206t-.2.214q-.1.11-.2.225a2.283,2.283,0,0,1-.335.3,1.92,1.92,0,0,1-.371.209,1.994,1.994,0,0,1-.415.124,2.537,2.537,0,0,1-.466.041h-.146l-.048,0a6.385,6.385,0,0,1-.92-.129,8.185,8.185,0,0,1-.868-.238c-.279-.092-.545-.2-.8-.3s-.488-.215-.707-.319a18.541,18.541,0,0,1-3.357-2.093,18.842,18.842,0,0,1-1.5-1.309,19.511,19.511,0,0,1-1.373-1.478c-.36-.434-.69-.859-.992-1.281s-.578-.838-.828-1.255-.475-.833-.677-1.252-.382-.843-.541-1.273c-.1-.263-.181-.511-.248-.748a6.812,6.812,0,0,1-.159-.678,5.1,5.1,0,0,1-.073-.626,4.374,4.374,0,0,1,.008-.591,2.156,2.156,0,0,1,.06-.355,1.873,1.873,0,0,1,.29-.624,2.142,2.142,0,0,1,.233-.274l.36-.36.36-.36.36-.36.36-.36a1.426,1.426,0,0,1,.157-.129,1.079,1.079,0,0,1,.16-.094.838.838,0,0,1,.162-.058.7.7,0,0,1,.162-.019.684.684,0,0,1,.189.027.822.822,0,0,1,.168.07,1.056,1.056,0,0,1,.143.1,1.311,1.311,0,0,1,.116.1l0,0,0,0,0,0,0,0q.1.09.191.182l.189.186.189.191.191.2.1.1.1.1.1.1.1.1.288.288.288.288.288.288.288.288a1.353,1.353,0,0,1,.252.33.667.667,0,0,1,0,.648,1.353,1.353,0,0,1-.252.33l-.091.092-.09.091-.09.091-.091.089-.263.268q-.131.132-.262.26t-.264.254q-.133.126-.271.249l-.006.006-.006,0-.005,0,0,.006a1.024,1.024,0,0,0-.2.269.774.774,0,0,0-.076.256.864.864,0,0,0,.006.233,1.365,1.365,0,0,0,.049.2l0,.01,0,.01,0,.01,0,.01c.075.181.157.36.249.539s.193.358.3.54.234.366.368.556.281.386.442.589h0q.437.538.887,1.018t.916.9q.467.425.952.8t.993.693q.065.041.13.079l.131.072.13.067.128.064.112.056.108.056.1.056.1.056.013.007.013.008.013.008.013.007a1.143,1.143,0,0,0,.106.047.953.953,0,0,0,.1.033.846.846,0,0,0,.1.019.831.831,0,0,0,.1.006.81.81,0,0,0,.238-.035.863.863,0,0,0,.187-.083.99.99,0,0,0,.135-.1c.036-.031.063-.058.081-.076l.361-.361.361-.361.361-.361.361-.361a1.472,1.472,0,0,1,.123-.11,1.163,1.163,0,0,1,.15-.1.857.857,0,0,1,.173-.075.659.659,0,0,1,.192-.029.65.65,0,0,1,.187.028.787.787,0,0,1,.166.072.992.992,0,0,1,.141.1,1.154,1.154,0,0,1,.113.109l.584.584.584.584.584.584.584.584a1.253,1.253,0,0,1,.245.325.735.735,0,0,1,.082.329.754.754,0,0,1-.08.332A1.318,1.318,0,0,1,283.514,308.636Z" transform="translate(0 -25.93)" fill="#fff"/>
    <path id="Path_29" data-name="Path 29" d="M508.415,351.921a5.319,5.319,0,0,1,2.275.963,5.564,5.564,0,0,1,1.186,1.186,5.354,5.354,0,0,1,.76,1.466,5.437,5.437,0,0,1,.2.809.561.561,0,0,0,.2.341.573.573,0,0,0,.366.132h.025l.024,0,.024,0,.025,0a.562.562,0,0,0,.37-.231.576.576,0,0,0,.09-.2.582.582,0,0,0,.008-.228A6.49,6.49,0,0,0,512.8,353.4a6.684,6.684,0,0,0-1.432-1.432,6.489,6.489,0,0,0-2.754-1.166.58.58,0,0,0-.227.008.572.572,0,0,0-.339.882.559.559,0,0,0,.156.152A.551.551,0,0,0,508.415,351.921Z" transform="translate(-231.409 -81.291)" fill="#fff"/>
    <path id="Path_30" data-name="Path 30" d="M521.211,274.695a10.767,10.767,0,0,0-.4-1.612,10.661,10.661,0,0,0-1.515-2.922,11.033,11.033,0,0,0-2.361-2.361,10.685,10.685,0,0,0-4.534-1.919.553.553,0,0,0-.224.006.563.563,0,0,0-.2.09.571.571,0,0,0,.236,1.027,9.541,9.541,0,0,1,4.052,1.716,9.8,9.8,0,0,1,2.111,2.109,9.53,9.53,0,0,1,1.714,4.052.561.561,0,0,0,.2.341.572.572,0,0,0,.366.132h.025l.024,0,.024,0,.025,0a.549.549,0,0,0,.21-.078.56.56,0,0,0,.254-.572Z" transform="translate(-235.038)" fill="#fff"/>
  </g>
</svg>
